<?xml version="1.0" encoding="UTF-8"?>
<!DOCTYPE svg PUBLIC "-//W3C//DTD SVG 1.1//EN" "http://www.w3.org/Graphics/SVG/1.1/DTD/svg11.dtd">
<!-- Creator: CorelDRAW 2019 (64-Bit) -->
<svg xmlns="http://www.w3.org/2000/svg" xml:space="preserve" width="25.3998mm" height="12.7mm" version="1.1" style="shape-rendering:geometricPrecision; text-rendering:geometricPrecision; image-rendering:optimizeQuality; fill-rule:evenodd; clip-rule:evenodd"
viewBox="0 0 2539.98 1270"
 xmlns:xlink="http://www.w3.org/1999/xlink"
 xmlns:xodm="http://www.corel.com/coreldraw/odm/2003">
 <defs>
  <style type="text/css">
   <![CDATA[
    .fil0 {fill:#373435;fill-rule:nonzero}
   ]]>
  </style>
 </defs>
 <g id="Capa_x0020_1">
  <metadata id="CorelCorpID_0Corel-Layer"/>
  <g id="_2278993334384">
   <path class="fil0" d="M980.17 606.32c0,-71.56 -31.01,-106.54 -84.28,-127.21 42.14,-20.68 65.2,-54.86 65.2,-112.11 0,-96.21 -67.59,-136.75 -169.36,-136.75l-198.77 0c-31,0 -55.65,27.03 -55.65,58.04l0 482.61 245.68 0c116.87,0 197.18,-52.48 197.18,-164.58zm-130.4 -225.01c0,45.32 -35.77,58.84 -79.5,58.84l-124.04 0 0 -116.08 122.45 0c50.09,0 81.09,11.92 81.09,57.24zm13.52 221.83c0,54.06 -33.39,69.97 -88.25,69.97l-128.81 0 0 -141.53 127.22 0c57.24,0 89.84,15.9 89.84,71.56zm355.4 -259.2c-127.22,0 -190.82,72.35 -190.82,218.65 0,144.7 63.6,217.85 190.82,217.85 127.21,0 191.61,-73.15 191.61,-217.85 0,-146.3 -64.4,-218.65 -191.61,-218.65zm0 93.03c54.06,0 81.09,40.55 81.09,122.44 -0.79,83.48 -27.82,126.42 -81.89,126.42 -54.06,0 -81.89,-41.35 -82.69,-123.24 0,-83.48 27.83,-125.62 83.49,-125.62zm436.5 1.59c57.24,0 86.66,39.75 89.05,120.85 0,85.07 -30.22,128.01 -90.64,128.01 -60.43,0 -89.05,-42.94 -88.26,-128.01 3.18,-81.1 32.6,-120.85 89.85,-120.85zm141.52 -208.31l-52.47 0 0 178.89c-27.04,-43.73 -67.59,-65.2 -120.06,-65.2 -112.11,3.98 -167.76,77.12 -167.76,220.24 0,139.93 65.19,210.7 195.59,213.08 131.19,0.8 197.18,-62.02 197.18,-188.43l0 -305.31c0,-28.63 -23.86,-53.27 -52.48,-53.27zm100.18 0l0 82.68 105.74 0 0 -31c0.8,-34.19 -15.9,-51.68 -50.88,-51.68l-54.86 0zm0 120.05l0 420.6 105.74 0 0 -369.71c0,-34.19 -16.69,-50.89 -50.88,-50.89l-54.86 0z"/>
   <path class="fil0" d="M639.33 1010.11l0 -101.03 20.04 0 23.9 71.51c2.21,6.66 3.81,11.65 4.82,14.96 1.15,-3.67 2.96,-9.08 5.41,-16.2l24.31 -70.27 17.9 0 0 101.03 -12.84 0 0 -84.52 -29.49 84.52 -12.04 0 -29.17 -86.08 0 86.08 -12.84 0zm164.11 -9.17c-4.61,3.93 -9.06,6.68 -13.31,8.3 -4.26,1.62 -8.82,2.42 -13.71,2.42 -8.05,0 -14.23,-1.95 -18.56,-5.88 -4.33,-3.9 -6.49,-8.91 -6.49,-15 0,-3.58 0.82,-6.85 2.45,-9.81 1.64,-2.96 3.78,-5.31 6.42,-7.1 2.65,-1.79 5.62,-3.15 8.93,-4.07 2.45,-0.64 6.14,-1.25 11.06,-1.86 10.02,-1.17 17.42,-2.61 22.15,-4.26 0.05,-1.69 0.07,-2.77 0.07,-3.22 0,-5.03 -1.17,-8.58 -3.53,-10.65 -3.17,-2.8 -7.9,-4.19 -14.15,-4.19 -5.86,0 -10.19,1.04 -12.96,3.08 -2.8,2.05 -4.85,5.67 -6.19,10.89l-12.13 -1.69c1.1,-5.2 2.91,-9.41 5.45,-12.61 2.54,-3.2 6.21,-5.64 11.01,-7.38 4.77,-1.72 10.35,-2.59 16.65,-2.59 6.26,0 11.36,0.73 15.29,2.21 3.9,1.48 6.79,3.32 8.63,5.55 1.83,2.24 3.13,5.06 3.88,8.47 0.4,2.12 0.61,5.93 0.61,11.41l0 16.46c0,11.5 0.26,18.77 0.78,21.85 0.49,3.08 1.53,6.02 3.03,8.84l-12.98 0c-1.25,-2.61 -2.05,-5.67 -2.4,-9.17zm-0.99 -27.52c-4.51,1.84 -11.29,3.39 -20.32,4.66 -5.13,0.73 -8.75,1.55 -10.86,2.47 -2.12,0.91 -3.74,2.26 -4.9,4 -1.15,1.76 -1.74,3.71 -1.74,5.88 0,3.26 1.25,6.02 3.77,8.2 2.51,2.19 6.18,3.3 11,3.3 4.78,0 9.03,-1.04 12.77,-3.13 3.72,-2.07 6.47,-4.92 8.21,-8.52 1.34,-2.79 2,-6.91 2,-12.34l0.07 -4.52zm31.63 36.69l0 -73.24 11.15 0 0 10.4c5.36,-7.97 13.12,-11.95 23.26,-11.95 4.42,0 8.47,0.8 12.16,2.38 3.69,1.57 6.47,3.67 8.3,6.23 1.84,2.56 3.13,5.62 3.86,9.15 0.45,2.3 0.68,6.32 0.68,12.06l0 44.97 -12.42 0 0 -44.5c0,-5.05 -0.47,-8.84 -1.43,-11.33 -0.97,-2.5 -2.68,-4.49 -5.13,-6 -2.44,-1.48 -5.34,-2.23 -8.63,-2.23 -5.27,0 -9.81,1.67 -13.64,5.03 -3.83,3.34 -5.74,9.71 -5.74,19.07l0 39.96 -12.42 0zm128.44 -23.71l12.84 1.7c-2,7.45 -5.74,13.26 -11.2,17.38 -5.45,4.11 -12.42,6.18 -20.91,6.18 -10.67,0 -19.14,-3.29 -25.4,-9.88 -6.25,-6.56 -9.38,-15.8 -9.38,-27.68 0,-12.27 3.15,-21.82 9.48,-28.59 6.33,-6.8 14.53,-10.19 24.62,-10.19 9.76,0 17.74,3.32 23.92,9.97 6.19,6.66 9.29,16.02 9.29,28.08 0,0.73 -0.02,1.84 -0.07,3.3l-54.54 0c0.47,8.02 2.73,14.18 6.82,18.44 4.07,4.25 9.17,6.39 15.26,6.39 4.54,0 8.42,-1.2 11.62,-3.6 3.22,-2.39 5.76,-6.23 7.65,-11.5zm-40.64 -19.89l40.78 0c-0.54,-6.16 -2.12,-10.77 -4.68,-13.86 -3.93,-4.77 -9.06,-7.17 -15.34,-7.17 -5.69,0 -10.46,1.91 -14.34,5.72 -3.86,3.81 -6,8.91 -6.42,15.31zm69.09 -43.04l0 -14.39 12.42 0 0 14.39 -12.42 0zm-15.71 114.96l2.28 -10.52c2.5,0.64 4.45,0.97 5.88,0.97 2.54,0 4.42,-0.85 5.67,-2.52 1.25,-1.67 1.88,-5.88 1.88,-12.58l0 -76.91 12.42 0 0 77.17c0,9.01 -1.18,15.28 -3.53,18.81 -2.98,4.59 -7.95,6.89 -14.88,6.89 -3.37,0 -6.59,-0.44 -9.72,-1.31zm94.97 -37.49c-4.61,3.93 -9.06,6.68 -13.31,8.3 -4.26,1.62 -8.82,2.42 -13.71,2.42 -8.05,0 -14.23,-1.95 -18.56,-5.88 -4.33,-3.9 -6.49,-8.91 -6.49,-15 0,-3.58 0.82,-6.85 2.45,-9.81 1.64,-2.96 3.78,-5.31 6.42,-7.1 2.65,-1.79 5.62,-3.15 8.93,-4.07 2.45,-0.64 6.14,-1.25 11.06,-1.86 10.02,-1.17 17.42,-2.61 22.15,-4.26 0.05,-1.69 0.07,-2.77 0.07,-3.22 0,-5.03 -1.17,-8.58 -3.53,-10.65 -3.17,-2.8 -7.9,-4.19 -14.15,-4.19 -5.86,0 -10.19,1.04 -12.96,3.08 -2.8,2.05 -4.85,5.67 -6.19,10.89l-12.13 -1.69c1.1,-5.2 2.91,-9.41 5.45,-12.61 2.54,-3.2 6.21,-5.64 11.01,-7.38 4.77,-1.72 10.35,-2.59 16.65,-2.59 6.26,0 11.36,0.73 15.29,2.21 3.9,1.48 6.79,3.32 8.63,5.55 1.83,2.24 3.13,5.06 3.88,8.47 0.4,2.12 0.61,5.93 0.61,11.41l0 16.46c0,11.5 0.26,18.77 0.78,21.85 0.49,3.08 1.53,6.02 3.03,8.84l-12.98 0c-1.25,-2.61 -2.05,-5.67 -2.4,-9.17zm-0.99 -27.52c-4.51,1.84 -11.29,3.39 -20.32,4.66 -5.13,0.73 -8.75,1.55 -10.86,2.47 -2.12,0.91 -3.74,2.26 -4.9,4 -1.15,1.76 -1.74,3.71 -1.74,5.88 0,3.26 1.25,6.02 3.77,8.2 2.51,2.19 6.18,3.3 11,3.3 4.78,0 9.03,-1.04 12.77,-3.13 3.72,-2.07 6.47,-4.92 8.21,-8.52 1.34,-2.79 2,-6.91 2,-12.34l0.07 -4.52zm78.91 36.69l0 -9.29c-4.64,7.22 -11.46,10.84 -20.47,10.84 -5.83,0 -11.19,-1.6 -16.06,-4.82 -4.89,-3.2 -8.68,-7.69 -11.38,-13.43 -2.68,-5.76 -4.02,-12.37 -4.02,-19.85 0,-7.29 1.22,-13.9 3.64,-19.85 2.45,-5.92 6.09,-10.49 10.96,-13.64 4.85,-3.17 10.3,-4.75 16.3,-4.75 4.42,0 8.35,0.94 11.78,2.8 3.44,1.86 6.23,4.3 8.4,7.29l0 -36.33 12.42 0 0 101.03 -11.57 0zm-39.23 -36.52c0,9.36 1.97,16.34 5.95,20.97 3.95,4.64 8.63,6.94 14.01,6.94 5.44,0 10.05,-2.21 13.86,-6.63 3.78,-4.42 5.69,-11.17 5.69,-20.25 0,-9.97 -1.93,-17.31 -5.81,-21.99 -3.86,-4.68 -8.63,-7.01 -14.3,-7.01 -5.53,0 -10.14,2.24 -13.85,6.73 -3.7,4.49 -5.55,11.57 -5.55,21.24zm65.78 -0.1c0,-13.52 3.76,-23.54 11.31,-30.05 6.28,-5.41 13.97,-8.12 23.02,-8.12 10.05,0 18.28,3.29 24.67,9.88 6.38,6.56 9.58,15.66 9.58,27.26 0,9.4 -1.42,16.79 -4.24,22.17 -2.82,5.39 -6.94,9.58 -12.34,12.56 -5.39,2.99 -11.29,4.47 -17.67,4.47 -10.25,0 -18.53,-3.27 -24.86,-9.83 -6.32,-6.56 -9.47,-16.01 -9.47,-28.34zm12.7 0.03c0,9.36 2.04,16.36 6.13,21 4.12,4.65 9.27,6.98 15.5,6.98 6.17,0 11.29,-2.33 15.41,-7.01 4.09,-4.68 6.14,-11.8 6.14,-21.37 0,-9.04 -2.07,-15.88 -6.19,-20.51 -4.11,-4.66 -9.24,-6.99 -15.36,-6.99 -6.23,0 -11.38,2.31 -15.5,6.94 -4.09,4.63 -6.13,11.62 -6.13,20.96zm70.29 36.59l0 -73.24 11.15 0 0 11.22c2.85,-5.2 5.48,-8.63 7.9,-10.28 2.42,-1.67 5.08,-2.49 7.97,-2.49 4.19,0 8.45,1.32 12.78,3.93l-4.43 11.45c-3.01,-1.69 -6.02,-2.54 -9.03,-2.54 -2.7,0 -5.12,0.83 -7.26,2.45 -2.14,1.62 -3.67,3.88 -4.59,6.77 -1.39,4.4 -2.07,9.22 -2.07,14.47l0 38.26 -12.42 0zm133.62 0l0 -9.29c-4.64,7.22 -11.46,10.84 -20.47,10.84 -5.83,0 -11.19,-1.6 -16.06,-4.82 -4.89,-3.2 -8.68,-7.69 -11.38,-13.43 -2.68,-5.76 -4.02,-12.37 -4.02,-19.85 0,-7.29 1.22,-13.9 3.64,-19.85 2.45,-5.92 6.09,-10.49 10.96,-13.64 4.85,-3.17 10.3,-4.75 16.3,-4.75 4.42,0 8.35,0.94 11.78,2.8 3.44,1.86 6.23,4.3 8.4,7.29l0 -36.33 12.42 0 0 101.03 -11.57 0zm-39.23 -36.52c0,9.36 1.97,16.34 5.95,20.97 3.95,4.64 8.63,6.94 14.01,6.94 5.44,0 10.05,-2.21 13.86,-6.63 3.78,-4.42 5.69,-11.17 5.69,-20.25 0,-9.97 -1.93,-17.31 -5.81,-21.99 -3.86,-4.68 -8.63,-7.01 -14.3,-7.01 -5.53,0 -10.14,2.24 -13.85,6.73 -3.7,4.49 -5.55,11.57 -5.55,21.24zm120.39 12.81l12.84 1.7c-2,7.45 -5.74,13.26 -11.2,17.38 -5.45,4.11 -12.42,6.18 -20.91,6.18 -10.67,0 -19.14,-3.29 -25.4,-9.88 -6.25,-6.56 -9.38,-15.8 -9.38,-27.68 0,-12.27 3.15,-21.82 9.48,-28.59 6.33,-6.8 14.53,-10.19 24.62,-10.19 9.76,0 17.74,3.32 23.92,9.97 6.19,6.66 9.29,16.02 9.29,28.08 0,0.73 -0.02,1.84 -0.07,3.3l-54.54 0c0.47,8.02 2.73,14.18 6.82,18.44 4.07,4.25 9.17,6.39 15.26,6.39 4.54,0 8.42,-1.2 11.62,-3.6 3.22,-2.39 5.76,-6.23 7.65,-11.5zm-40.64 -19.89l40.78 0c-0.54,-6.16 -2.12,-10.77 -4.68,-13.86 -3.93,-4.77 -9.06,-7.17 -15.34,-7.17 -5.69,0 -10.46,1.91 -14.34,5.72 -3.86,3.81 -6,8.91 -6.42,15.31zm68.88 43.6l0 -101.03 12.42 0 0 101.03 -12.42 0zm72.4 0l0 -101.03 34.8 0c7.86,0 13.85,0.47 17.99,1.43 5.79,1.34 10.73,3.76 14.82,7.24 5.34,4.52 9.31,10.26 11.95,17.27 2.66,7 3.97,15.02 3.97,24.03 0,7.67 -0.89,14.47 -2.68,20.39 -1.79,5.93 -4.09,10.84 -6.89,14.72 -2.82,3.89 -5.88,6.94 -9.22,9.15 -3.31,2.24 -7.34,3.93 -12.04,5.08 -4.73,1.16 -10.14,1.72 -16.25,1.72l-36.45 0zm13.4 -11.85l21.54 0c6.66,0 11.88,-0.61 15.67,-1.86 3.78,-1.25 6.79,-2.99 9.05,-5.25 3.15,-3.17 5.62,-7.45 7.39,-12.81 1.76,-5.37 2.65,-11.86 2.65,-19.5 0,-10.58 -1.74,-18.72 -5.19,-24.41 -3.46,-5.69 -7.67,-9.5 -12.63,-11.43 -3.58,-1.39 -9.34,-2.07 -17.29,-2.07l-21.19 0 0 77.33zm82.29 -24.77c0,-13.52 3.76,-23.54 11.31,-30.05 6.28,-5.41 13.97,-8.12 23.02,-8.12 10.05,0 18.28,3.29 24.67,9.88 6.38,6.56 9.58,15.66 9.58,27.26 0,9.4 -1.42,16.79 -4.24,22.17 -2.82,5.39 -6.94,9.58 -12.34,12.56 -5.39,2.99 -11.29,4.47 -17.67,4.47 -10.25,0 -18.53,-3.27 -24.86,-9.83 -6.32,-6.56 -9.47,-16.01 -9.47,-28.34zm12.7 0.03c0,9.36 2.04,16.36 6.13,21 4.12,4.65 9.27,6.98 15.5,6.98 6.17,0 11.29,-2.33 15.41,-7.01 4.09,-4.68 6.14,-11.8 6.14,-21.37 0,-9.04 -2.07,-15.88 -6.19,-20.51 -4.11,-4.66 -9.24,-6.99 -15.36,-6.99 -6.23,0 -11.38,2.31 -15.5,6.94 -4.09,4.63 -6.13,11.62 -6.13,20.96zm70.15 36.59l0 -101.03 12.42 0 0 101.03 -12.42 0zm79.47 -9.17c-4.61,3.93 -9.06,6.68 -13.31,8.3 -4.26,1.62 -8.82,2.42 -13.71,2.42 -8.05,0 -14.23,-1.95 -18.56,-5.88 -4.33,-3.9 -6.49,-8.91 -6.49,-15 0,-3.58 0.82,-6.85 2.45,-9.81 1.64,-2.96 3.78,-5.31 6.42,-7.1 2.65,-1.79 5.62,-3.15 8.93,-4.07 2.45,-0.64 6.14,-1.25 11.06,-1.86 10.02,-1.17 17.42,-2.61 22.15,-4.26 0.05,-1.69 0.07,-2.77 0.07,-3.22 0,-5.03 -1.17,-8.58 -3.53,-10.65 -3.17,-2.8 -7.9,-4.19 -14.15,-4.19 -5.86,0 -10.19,1.04 -12.96,3.08 -2.8,2.05 -4.85,5.67 -6.19,10.89l-12.13 -1.69c1.1,-5.2 2.91,-9.41 5.45,-12.61 2.54,-3.2 6.21,-5.64 11.01,-7.38 4.77,-1.72 10.35,-2.59 16.65,-2.59 6.26,0 11.36,0.73 15.29,2.21 3.9,1.48 6.79,3.32 8.63,5.55 1.83,2.24 3.13,5.06 3.88,8.47 0.4,2.12 0.61,5.93 0.61,11.41l0 16.46c0,11.5 0.26,18.77 0.78,21.85 0.49,3.08 1.53,6.02 3.03,8.84l-12.98 0c-1.25,-2.61 -2.05,-5.67 -2.4,-9.17zm-0.99 -27.52c-4.51,1.84 -11.29,3.39 -20.32,4.66 -5.13,0.73 -8.75,1.55 -10.86,2.47 -2.12,0.91 -3.74,2.26 -4.9,4 -1.15,1.76 -1.74,3.71 -1.74,5.88 0,3.26 1.25,6.02 3.77,8.2 2.51,2.19 6.18,3.3 11,3.3 4.78,0 9.03,-1.04 12.77,-3.13 3.72,-2.07 6.47,-4.92 8.21,-8.52 1.34,-2.79 2,-6.91 2,-12.34l0.07 -4.52zm31.49 36.69l0 -73.24 11.15 0 0 11.22c2.85,-5.2 5.48,-8.63 7.9,-10.28 2.42,-1.67 5.08,-2.49 7.97,-2.49 4.19,0 8.45,1.32 12.78,3.93l-4.43 11.45c-3.01,-1.69 -6.02,-2.54 -9.03,-2.54 -2.7,0 -5.12,0.83 -7.26,2.45 -2.14,1.62 -3.67,3.88 -4.59,6.77 -1.39,4.4 -2.07,9.22 -2.07,14.47l0 38.26 -12.42 0z"/>
  </g>
 </g>
</svg>
